# xmcd
#
# Track frame offsets:
#	150
#	13377
#	28689
#	45813
#	58776
#	80539
#	96582
#	110330
#	124009
#	142976
#	163909
#	178318
#
# Disc length: 2682 seconds
#
# Revision: 0
# Processed by: cddbd v1.5.2PL0 Copyright (c) Steve Scherf et al.
# Submitted via: dBpowerAMP V4.0
#
DISCID=a40a780c
DTITLE=Ruud Weber Band - New Blues
DYEAR=2011
DGENRE=Blues
TTITLE0=Revolution
TTITLE1=If I Can't Have You
TTITLE2=Go back To Where You Came From
TTITLE3=Can't get Enough
TTITLE4=Just Another Day
TTITLE5=Out Of Control
TTITLE6=Change Of Heart
TTITLE7=Move Over  Mister
TTITLE8=Tell Me, Tell Me
TTITLE9=I Still See You
TTITLE10=Colours And Shades
TTITLE11=Take One
EXTD=www.ruudweber.com
EXTT0=
EXTT1=
EXTT2=
EXTT3=
EXTT4=
EXTT5=
EXTT6=
EXTT7=
EXTT8=
EXTT9=
EXTT10=
EXTT11=
PLAYORDER=
